<?xml version="1.0" standalone="no"?>
<!DOCTYPE svg PUBLIC "-//W3C//DTD SVG 20010904//EN"
 "http://www.w3.org/TR/2001/REC-SVG-20010904/DTD/svg10.dtd">
<svg version="1.0" xmlns="http://www.w3.org/2000/svg"
 width="243.000000pt" height="243.000000pt" viewBox="0 0 243.000000 243.000000"
 preserveAspectRatio="xMidYMid meet">
<metadata>
Created by potrace 1.14, written by Peter Selinger 2001-2017
</metadata>
<g transform="translate(0.000000,243.000000) scale(0.100000,-0.100000)"
fill="#000000" stroke="none">
<path d="M2 1503 c4 -236 6 -252 31 -328 37 -111 90 -198 172 -280 82 -81 168
-134 280 -173 l80 -27 650 0 650 0 80 27 c112 39 198 92 280 173 82 82 135
169 172 280 25 76 27 92 31 328 l4 247 -1217 0 -1217 0 4 -247z m1453 -213 c0
-8 -8 -16 -17 -18 -13 -2 -18 3 -18 18 0 15 5 20 18 18 9 -2 17 -10 17 -18z
m85 -32 c0 -40 3 -49 12 -40 22 22 75 14 97 -14 46 -58 13 -154 -53 -154 -17
0 -37 5 -44 12 -9 9 -12 9 -12 0 0 -7 -9 -12 -20 -12 -19 0 -20 7 -20 130 0
123 1 130 20 130 17 0 20 -7 20 -52z m-950 24 c0 -15 -8 -18 -47 -18 -44 1
-48 -1 -51 -25 -2 -21 3 -29 27 -39 108 -44 108 -150 0 -150 -50 0 -69 8 -69
31 0 16 3 18 19 9 28 -14 76 -12 90 4 16 19 3 44 -33 63 -74 37 -95 84 -56
123 28 28 120 29 120 2z m710 3 c0 -10 -11 -15 -35 -15 l-35 0 0 -110 c0 -103
-1 -110 -20 -110 -19 0 -20 7 -20 109 l0 110 -32 3 c-17 2 -33 9 -36 16 -3 9
19 12 87 12 74 0 91 -3 91 -15z m-548 -72 c24 -22 27 -163 3 -163 -8 0 -15 5
-15 12 0 9 -3 9 -12 0 -7 -7 -26 -12 -43 -12 -38 0 -55 16 -55 51 0 34 19 49
70 56 42 6 45 9 31 32 -6 10 -21 12 -50 8 -42 -5 -50 0 -29 21 17 17 78 15
100 -5z m180 0 c24 -22 27 -163 3 -163 -8 0 -15 5 -15 12 0 9 -3 9 -12 0 -7
-7 -26 -12 -43 -12 -38 0 -55 16 -55 51 0 34 19 49 70 56 42 6 45 9 31 32 -6
10 -21 12 -50 8 -42 -5 -50 0 -29 21 17 17 78 15 100 -5z m168 3 c0 -10 -13
-16 -37 -18 -45 -4 -54 -24 -16 -40 63 -27 79 -60 44 -92 -25 -23 -94 -19 -99
6 -3 14 3 15 37 11 37 -5 41 -3 41 16 0 11 -6 21 -14 21 -20 0 -66 39 -66 57
0 9 7 25 17 35 20 23 93 26 93 4z m230 4 c0 -6 7 -6 19 1 10 7 26 9 36 6 20
-8 14 -33 -8 -29 -26 4 -47 -38 -47 -95 0 -40 -4 -53 -15 -53 -12 0 -15 17
-15 90 0 73 3 90 15 90 8 0 15 -5 15 -10z m130 -80 c0 -83 -1 -90 -20 -90 -19
0 -20 7 -20 90 0 83 1 90 20 90 19 0 20 -7 20 -90z m374 71 c9 -10 18 -31 19
-47 2 -29 2 -29 -60 -32 -66 -3 -71 -7 -50 -37 11 -14 23 -17 60 -13 26 3 47
2 47 -1 0 -18 -28 -31 -66 -31 -34 0 -47 5 -63 26 -30 38 -28 98 4 129 30 31
84 34 109 6z"/>
<path d="M1550 1181 c-15 -28 -12 -77 4 -90 8 -7 27 -11 43 -9 34 4 53 54 35
93 -15 32 -66 35 -82 6z"/>
<path d="M671 1121 c-20 -13 -5 -41 22 -41 25 0 47 17 47 37 0 15 -47 17 -69
4z"/>
<path d="M851 1121 c-20 -13 -5 -41 22 -41 25 0 47 17 47 37 0 15 -47 17 -69
4z"/>
<path d="M1740 1181 c-10 -20 -8 -21 35 -21 39 0 46 3 43 18 -5 27 -64 29 -78
3z"/>
</g>
</svg>
